# xmcd
#
# Track frame offsets: 
#        150
#        20500
#        34466
#        47093
#        61849
#        75568
#        90887
#        108162
#        126325
#        156168
#        169414
#        187401
#
# Disc length: 2751 seconds
#
# Revision: 0
# Processed by: cddbd v1.5.2PL0 Copyright (c) Steve Scherf et al.
# Submitted via: ExactAudioCopy v0.99pb4
#
DISCID=9c0abd0c
DTITLE=Nino Nardini - Nino Nardini And The Pop Riviera Group
DYEAR=1976
DGENRE=Funk
TTITLE0=Soul Walk
TTITLE1=Backgammon
TTITLE2=Trampoline
TTITLE3=Fun At Rachel'S
TTITLE4=Fast Delivery
TTITLE5=Express Pour Portofino
TTITLE6=Charger Attack
TTITLE7=Frisco Hills
TTITLE8=Latinova
TTITLE9=Passport International
TTITLE10=Vip 345
TTITLE11=Pop Riviera
EXTD=
EXTT0=
EXTT1=
EXTT2=
EXTT3=
EXTT4=
EXTT5=
EXTT6=
EXTT7=
EXTT8=
EXTT9=
EXTT10=
EXTT11=
PLAYORDER=
